<?xml version="1.0" encoding="utf-8"?>
<!-- Generator: Adobe Illustrator 22.1.0, SVG Export Plug-In . SVG Version: 6.00 Build 0)  -->
<svg version="1.1" id="Capa_1" xmlns="http://www.w3.org/2000/svg" xmlns:xlink="http://www.w3.org/1999/xlink" x="0px" y="0px"
	 viewBox="0 0 205.8 308" style="enable-background:new 0 0 205.8 308;" xml:space="preserve">
<style type="text/css">
	.st0{fill:#FFFFFF;}
	.st1{fill:none;stroke:#000000;stroke-width:14;}
</style>
<path d="M141,53c4.6,1.4,9.2,2.6,13.7,4.3c30.7,11.8,51.1,41.2,51.3,74.1c0.2,32.3,0.2,64.6,0,96.9c-0.2,41.6-31.8,75.6-73.5,79.4
	c-40.3,3.7-77.7-25-85.2-65.5c-1-5.4-1.3-10.9-1.3-16.4c0.1-30.3,0-60.6,0-90.9c0-41,24-71.5,63.7-81.3c0.5-0.1,0.8-0.5,1.3-0.7
	C121,53,131,53,141,53z"/>
<path class="st0" d="M190,180.2c0,15.8,0.1,31.7,0,47.5c-0.2,33.7-24.7,60.7-58.4,64.2c-31.3,3.3-60.8-18.4-68.1-50.1
	c-1-4.5-1.5-9.2-1.5-13.9c0-31.8-0.1-63.6,0-95.5c0.1-37.2,30.2-65.8,67.4-64.3c32.5,1.3,59.9,29.1,60.5,61.6
	C190.2,146.5,190,163.3,190,180.2L190,180.2z"/>
<path d="M120,132.5c0-6.1-0.1-12.3,0-18.4c0.1-5.5,3.2-9,7.9-9c4.7-0.1,8.1,3.4,8.1,8.8c0.1,12.8,0.1,25.6,0,38.4
	c0,5.4-3.4,8.8-8.1,8.8c-4.7-0.1-7.8-3.6-7.9-9C119.9,145.5,120,139,120,132.5z"/>
<path class="st1" d="M-4.3,36.1C117.6-9,125.3,6.5,125.3,58.8"/>
</svg>
