<?xml version="1.0" encoding="utf-8"?>
<!-- Generator: Adobe Illustrator 22.1.0, SVG Export Plug-In . SVG Version: 6.00 Build 0)  -->
<svg version="1.1" id="Capa_1" xmlns="http://www.w3.org/2000/svg" xmlns:xlink="http://www.w3.org/1999/xlink" x="0px" y="0px"
	 viewBox="0 0 697 737.6" style="enable-background:new 0 0 697 737.6;" xml:space="preserve">
<style type="text/css">
	.st0{fill:none;stroke:#000000;stroke-width:14;}
</style>
<path d="M528,0H48C21.5,0,0,21.5,0,48v320c0,26.5,21.5,48,48,48h192l-16,48h-47.5c0.9,2.6,2,4.6,2.5,4.6c21,7.5,48.2,21.4,54.7,43.4
	h47.8c1.3-21.7,3.5-43.9,3.5-65.4c20.4-0.9,40.1-3.1,60.3-2.6l-9.3-28h192c26.5,0,48-21.5,48-48V48C576,21.5,554.5,0,528,0z
	 M512,352H64V64h448V352z"/>
<path d="M661,431H301c-19.9,0-36,16.1-36,36v216c0,19.9,16.1,36,36,36h360c19.9,0,36-16.1,36-36V467C697,447.1,680.9,431,661,431z
	 M667,683c0,3.3-2.7,6-6,6H301c-3.3,0-6-2.7-6-6V467c0-3.3,2.7-6,6-6h360c3.3,0,6,2.7,6,6V683z M392.5,585.5v-21c0-5-4-9-9-9h-21
	c-5,0-9,4-9,9v21c0,5,4,9,9,9h21C388.5,594.5,392.5,590.5,392.5,585.5z M464.5,585.5v-21c0-5-4-9-9-9h-21c-5,0-9,4-9,9v21
	c0,5,4,9,9,9h21C460.5,594.5,464.5,590.5,464.5,585.5z M536.5,585.5v-21c0-5-4-9-9-9h-21c-5,0-9,4-9,9v21c0,5,4,9,9,9h21
	C532.5,594.5,536.5,590.5,536.5,585.5z M608.5,585.5v-21c0-5-4-9-9-9h-21c-5,0-9,4-9,9v21c0,5,4,9,9,9h21
	C604.5,594.5,608.5,590.5,608.5,585.5z M356.5,647v-21c0-5-4-9-9-9h-21c-5,0-9,4-9,9v21c0,5,4,9,9,9h21
	C352.5,656,356.5,652,356.5,647z M644.5,647v-21c0-5-4-9-9-9h-21c-5,0-9,4-9,9v21c0,5,4,9,9,9h21C640.5,656,644.5,652,644.5,647z
	 M356.5,524v-21c0-5-4-9-9-9h-21c-5,0-9,4-9,9v21c0,5,4,9,9,9h21C352.5,533,356.5,529,356.5,524z M428.5,524v-21c0-5-4-9-9-9h-21
	c-5,0-9,4-9,9v21c0,5,4,9,9,9h21C424.5,533,428.5,529,428.5,524z M500.5,524v-21c0-5-4-9-9-9h-21c-5,0-9,4-9,9v21c0,5,4,9,9,9h21
	C496.5,533,500.5,529,500.5,524z M572.5,524v-21c0-5-4-9-9-9h-21c-5,0-9,4-9,9v21c0,5,4,9,9,9h21C568.5,533,572.5,529,572.5,524z
	 M644.5,524v-21c0-5-4-9-9-9h-21c-5,0-9,4-9,9v21c0,5,4,9,9,9h21C640.5,533,644.5,529,644.5,524z M571,642.5v-12c0-5-4-9-9-9H400
	c-5,0-9,4-9,9v12c0,5,4,9,9,9h162C567,651.5,571,647.5,571,642.5z"/>
<path d="M234,560.9c-0.2-32.9-20.6-62.3-51.3-74.1c-4.5-1.7-9.1-2.9-13.7-4.3c-10,0-20,0-30-0.1c-0.5,0.2-0.8,0.6-1.3,0.7
	C98,492.9,74,523.4,74,564.4c0,30.3,0.1,60.6,0,90.9c0,5.5,0.3,11,1.3,16.4c7.5,40.5,44.9,69.2,85.2,65.5
	c41.7-3.8,73.3-37.8,73.5-79.4C234.2,625.5,234.2,593.2,234,560.9z M218,657.2c-0.2,33.7-24.7,60.7-58.4,64.2
	c-31.3,3.3-60.8-18.4-68.1-50.1c-1-4.5-1.5-9.2-1.5-13.9c0-31.8-0.1-63.6,0-95.5c0.1-37.2,30.2-65.8,67.4-64.3
	c32.5,1.3,59.9,29.1,60.5,61.6c0.4,16.8,0.1,33.6,0.1,50.5C218,625.5,218.1,641.4,218,657.2z"/>
<path d="M148,562c0-6.1-0.1-12.3,0-18.4c0.1-5.5,3.2-9,7.9-9c4.7-0.1,8.1,3.4,8.1,8.8c0.1,12.8,0.1,25.6,0,38.4
	c0,5.4-3.4,8.8-8.1,8.8c-4.7-0.1-7.8-3.6-7.9-9C148,575,148,568.5,148,562z"/>
<path class="st0" d="M23.7,465.6c121.9-45.1,129.7-29.6,129.7,22.6"/>
</svg>
