<?xml version="1.0" encoding="utf-8"?>
<!-- Generator: Adobe Illustrator 22.1.0, SVG Export Plug-In . SVG Version: 6.00 Build 0)  -->
<svg version="1.1" id="Capa_1" xmlns="http://www.w3.org/2000/svg" xmlns:xlink="http://www.w3.org/1999/xlink" x="0px" y="0px"
	 viewBox="0 0 576 512" style="enable-background:new 0 0 576 512;" xml:space="preserve">
<style type="text/css">
	.st0{fill:#4F4E4E;}
</style>
<path class="st0" d="M538.9,75l-53-53c-28-28.1-73.3-28.1-101.4,0l-322,322L50.2,454.8c-3.6,32.4,23.8,59.5,55.9,55.9L217,498.5
	l322-322l0,0C567,148.5,567,103,538.9,75z M189.9,442.2l-80.1,9l9-80.1l227.8-227.9l71.2,71.2L189.9,442.2z M497.4,134.9l-37.9,37.9
	l-71.2-71.2l37.9-37.9c4.9-5,13.1-5,18.1,0l53,53C502.3,121.7,502.3,129.8,497.4,134.9z"/>
</svg>
