<?xml version="1.0" encoding="utf-8"?>
<!-- Generator: Adobe Illustrator 22.1.0, SVG Export Plug-In . SVG Version: 6.00 Build 0)  -->
<svg version="1.1" id="Capa_1" xmlns="http://www.w3.org/2000/svg" xmlns:xlink="http://www.w3.org/1999/xlink" x="0px" y="0px"
	 viewBox="0 0 1920 1080" style="enable-background:new 0 0 1920 1080;" xml:space="preserve">
<style type="text/css">
	.st0{fill:#E2DE39;}
	.st1{fill:#4F4E4E;}
</style>
<path class="st0" d="M1502,812H413c-6.6,0-12-5.4-12-12V280c0-6.6,5.4-12,12-12h1089c6.6,0,12,5.4,12,12v520
	C1514,806.6,1508.6,812,1502,812z"/>
<path class="st1" d="M1556.3,352.8c0-1.9,0.1-3.7,0.1-5.6c-0.1-11.4-2.1-22.6-5.7-33.4c-16.7-50.1-62-82.7-115.2-82.7
	c-90.2,0-180.5,0-270.7,0c-225.6,0-451.2,0-676.8,0c-20.3,0-39.8,3.7-57.5,13.6c-42.1,23.5-64.2,59.5-64.3,107.9
	c-0.3,125.1,0,250.2-0.1,375.3c0,31.1,9.4,58.6,30.1,81.9c21.5,24.2,48.5,37.6,80.9,40.1c1.7,0,3.5,0,5.2,0.1c0.7,0,1.5-0.1,2.2-0.1
	c316.5,0,633.1,0,949.6,0c2,0,4,0.1,6,0.1c1.5,0,3,0,4.5,0c7.8-0.2,15.4-1.5,22.8-3.6c51.9-14.3,86.8-58.2,89-112
	c0-0.6-0.1-1.2-0.1-1.9C1556.2,605.9,1556.2,479.4,1556.3,352.8z M1509,729.2c0,35.3-21.8,63.2-55,71.5c-6,1.5-12,1.9-18.2,1.9
	c-316.4,0-632.7,0-949.1,0c-35.6,0-63.6-22.4-71.5-56.8c-1.3-5.6-1.5-11.4-1.5-17.1c0-125.2,0.2-250.5-0.1-375.7
	c-0.1-36.9,23.8-63.3,51.5-71.3c7.8-2.2,15.7-2.8,23.7-2.8c157.5,0,315,0,472.5,0c157.7,0,315.5,0.1,473.2-0.1
	c23.4,0,42.9,8,58,25.9c11.6,13.7,16.6,29.9,16.6,47.7C1509,477.9,1509.1,603.5,1509,729.2z"/>
<path class="st1" d="M809.2,518.2c1.6-14.8,3.3-29.5,5-44.3c2.4-21,4.8-41.9,7.2-62.9c1.4-12.3,2.9-24.5,4.3-36.8
	c0.2-1.9,0.8-2.4,2.7-2.4c33.1,0.1,66.2,0.1,99.4,0c2.1,0,2.6,0.8,2.4,2.6c-0.1,0.5,0,1,0,1.5c0,102.6,0,205.2,0.1,307.9
	c0,3.3-0.7,4.3-4.2,4.3c-18.7-0.2-37.5-0.2-56.2,0c-2.9,0-3.7-0.7-3.7-3.7c0.1-57.2,0.1-114.5,0.1-172.7c-2.2,7.3-3,13.9-4.3,20.4
	c-6,31.5-11.8,62.9-17.7,94.4c-3.6,19.2-7.3,38.4-10.7,57.7c-0.5,3-1.6,4-4.7,3.9c-13.5-0.2-27-0.1-40.5,0c-2.4,0-3.3-0.6-3.7-3.2
	c-7.1-42.4-14.4-84.8-21.6-127.2c-2.4-14-4.9-28-7.3-42c-0.1-0.6,0.1-1.3-0.9-1.7c0,1.4,0,2.7,0,4.1c0,55.2,0,110.5,0.1,165.7
	c0,3.4-0.9,4.3-4.3,4.2c-20.5-0.2-41-0.2-61.5,0c-3,0-3.6-0.9-3.6-3.7c0.1-102.9,0.1-205.7,0-308.6c0-3.1,0.7-3.9,3.8-3.9
	c30,0.1,60,0.1,90,0c2.5,0,3.8,0.3,4.3,3.4c5.2,31.2,10.7,62.4,16.2,93.6c2.8,16,5.5,31.9,8.3,47.9c0.4,1.1,0.8,2.2,1.1,3.1
	C809,519.5,808.6,518.8,809.2,518.2z"/>
<path class="st1" d="M568.5,529.9c0-51.4,0-102.7-0.1-154.1c0-3.3,0.8-4,4-4c22.7,0.2,45.5,0.1,68.2,0c3,0,3.6,0.8,3.6,3.7
	c-0.1,103-0.1,205.9,0,308.9c0,2.9-0.8,3.6-3.7,3.6c-22.9-0.1-45.7-0.1-68.6,0c-3,0-3.6-0.8-3.6-3.7
	C568.5,632.9,568.5,581.4,568.5,529.9z"/>
<path class="st1" d="M809.2,518.2c0,0.6,0,1.2,0,2.1c-1.2-1.2-1.6-2.3-1.4-3.6C808.3,517.2,808.7,517.7,809.2,518.2z"/>
<path class="st1" d="M1156.2,439.3c0-11-0.6-22-5.1-32.3c-6.8-15.8-20.2-23.5-35.8-28.1c-13.3-3.9-27.1-4.5-40.8-4.6
	c-33.2-0.2-66.5-0.1-99.7-0.3c-3.5,0-4,1-4,4.2c0.1,51.4,0.1,102.7,0.1,154.1c0,51.6,0,103.2,0,154.9c0,2.1-0.4,4,3,3.9
	c38-0.5,76,1,114-1.1c11.8-0.6,24-1.5,34.5-7.3c21.8-12,33.7-30.8,33.8-55.9C1156.4,564.3,1156.3,501.8,1156.2,439.3z M1074.9,626.6
	c-1.5,3.6-4.4,5.3-7.9,6.2c-6.1,1.6-12.4,0.8-18.6,1c-1.2,0-1.5-0.5-1.5-1.6c0-0.9,0-1.7,0-2.6c0-34,0-67.9,0-101.9
	c0-34.1,0-68.2-0.1-102.3c0-3,0.5-4.2,3.8-3.9c4.8,0.4,9.7-0.2,14.6,0.7c6.7,1.3,10,4.9,10.5,11.6c0.1,1.6,0.1,3.2,0.1,4.9
	c0,60.1,0,120.2,0,180.2C1075.7,621.5,1076,624.1,1074.9,626.6z"/>
<path class="st1" d="M1356.3,451c-6.8-16.8-31.7-31.3-50-29.3c-8.5,1-16.6,3-24.5,6.5c-8.2,3.6-15.7,8.4-22.5,14.3
	c-0.8-1.4-0.5-2.7-0.5-3.9c0-21.1-0.1-42.2,0-63.4c0-2.6-0.4-3.6-3.4-3.6c-24,0.1-48,0.1-72,0c-3,0-3.7,0.8-3.7,3.7
	c0.1,103,0.1,206,0,309c0,2.9,0.8,3.5,3.5,3.5c19.4-0.1,38.7-0.1,58.1,0c2.7,0,3.6-1,4.3-3.3c0.8-2.7,1.9-5.4,3.1-8
	c2.6-5.6,3.4-5.8,9-3.5c1,0.4,2.1,0.8,3.1,1.2c22.4,9.4,45.4,14.1,69.7,9.7c9.5-1.7,17.7-4.9,23-13.5c4.2-6.9,4.9-14.5,5-22.3
	c0.1-61.5,0.2-123,0.2-184.5C1358.7,459.4,1358,455.1,1356.3,451z M1278.9,643.9c-3.4,3.8-7.6,4.7-12.2,3.3c-4.4-1.3-6.6-4.7-7.4-9
	c-0.4-2.1-0.4-4.2-0.4-6.3c0-51.9,0-103.7,0-155.6c0-2.4,0-4.8,0.7-7c1.8-5.3,6.9-8.1,13.2-7.3c4.6,0.6,7.3,4,7.5,10.1
	c0.5,27.1,0.9,54.2,1.3,81.3c0.3,0,0.6,0,1,0c0,26.2,0,52.5,0,78.7C1282.6,636.5,1282,640.5,1278.9,643.9z"/>
</svg>
